# AST/ASF file generated using VICON BodyLanguage
# -----------------------------------------------
:version 1.10
:name VICON
:units
  mass 1.0
  length 0.45
  angle deg
:documentation
   .ast/.asf automatically generated from VICON data using
   VICON BodyBuilder and BodyLanguage model FoxedUp or BRILLIANT.MOD
:root
   order TX TY TZ RX RY RZ
   axis XYZ
   position 0 0 0  
   orientation 0 0 0 
:bonedata
  begin
     id 1 
     name lhipjoint
     direction 0.558404 -0.748506 0.357664 
     length 2.4234 
     axis 0 0 0  XYZ
  end
  begin
     id 2 
     name lfemur
     direction 0.34202 -0.939693 0  
     length 7.14567  
     axis 0 0 20  XYZ
    dof rx ry rz
    limits (-160.0 20.0)
           (-70.0 70.0)
           (-60.0 70.0)
  end
  begin
     id 3 
     name ltibia
     direction 0.34202 -0.939693 0   
     length 8.13956   
     axis 0 0 20   XYZ
    dof rx
    limits (-10.0 170.0)
  end
  begin
     id 4 
     name lfoot
     direction 0.0791314 -0.217412 0.972867   
     length 2.00134   
     axis -90 7.62852e-016 20   XYZ
    dof rx rz
    limits (-45.0 90.0)
           (-70.0 20.0)
  end
  begin
     id 5 
     name ltoes
     direction 1.53547e-011 -4.21922e-011 1   
     length 1.00735   
     axis -90 7.62852e-016 20   XYZ
    dof rx
    limits (-90.0 20.0)
  end
  begin
     id 6 
     name rhipjoint
     direction -0.496392 -0.78327 0.374276   
     length 2.31584  
     axis 0 0 0  XYZ 
  end
  begin
     id 7 
     name rfemur
     direction -0.34202 -0.939693 0   
     length 7.47417   
     axis 0 0 -20   XYZ
    dof rx ry rz
    limits (-160.0 20.0)
           (-70.0 70.0)
           (-70.0 60.0)
  end
  begin
     id 8 
     name rtibia
     direction -0.34202 -0.939693 0   
     length 7.69071   
     axis 0 0 -20   XYZ
    dof rx
    limits (-10.0 170.0)
 end
 begin
     id 9 
     name rfoot
     direction -0.103069 -0.28318 0.953512   
     length 2.16135  
     axis -90 -7.62852e-016 -20   XYZ
    dof rx rz
    limits (-45.0 90.0)
           (-20.0 70.0)
  end
  begin
     id 10 
     name rtoes
     direction -1.53581e-011 -4.21904e-011 1   
     length 1.07867   
     axis -90 -7.62852e-016 -20   XYZ
    dof rx
    limits (-90.0 20.0)
  end
  begin
     id 11 
     name lowerback
     direction -0.0258961 0.994776 -0.0987407   
     length 2.19412   
     axis 0 0 0   XYZ
    dof rx ry rz
    limits (-20.0 45.0)
           (-30.0 30.0)
           (-30.0 30.0)
  end
  begin
     id 12 
     name upperback
     direction 0.0402454 0.999185 0.00320666   
     length 2.18445   
     axis 0 0 0   XYZ
    dof rx ry rz
    limits (-20.0 45.0)
           (-30.0 30.0)
           (-30.0 30.0)
  end
  begin
     id 13 
     name thorax
     direction 0.0519376 0.997415 0.0496558   
     length 2.21487   
     axis 0 0 0   XYZ
    dof rx ry rz
    limits (-20.0 45.0)
           (-30.0 30.0)
           (-30.0 30.0)
  end
  begin
     id 14 
     name lowerneck
     direction -0.0921276 0.983211 0.157506   
     length 1.61201   
     axis 0 0 0   XYZ
    dof rx ry rz
    limits (-20.0 45.0)
           (-30.0 30.0)
           (-30.0 30.0)
  end
  begin
     id 15 
     name upperneck
     direction 0.0820814 0.98162 -0.172292   
     length 1.65275   
     axis 0 0 0   XYZ
    dof rx ry rz
    limits (-20.0 45.0)
           (-30.0 30.0)
           (-30.0 30.0)
  end
  begin
     id 16
     name head
     direction 0.0336554 0.996413 -0.0776455  
     length 1.66415  
     axis 0 0 0   XYZ
    dof rx ry rz
    limits (-20.0 45.0)
           (-30.0 30.0)
           (-30.0 30.0)
  end
  begin
     id 17 
     name lclavicle
     direction 0.94696 0.284418 -0.149576  
     length 3.41447  
     axis 0 0 0   XYZ
    dof ry rz
    limits (-20.0 10.0)
           (0.0 20.0)
  end
  begin
     id 18 
     name lhumerus
     direction 1 -0.000130264 -9.81312e-005   
     length 5.19964   
     axis 180 -30 -90   XYZ
    dof rx ry rz
    limits (-60.0 90.0)
           (-90.0 90.0)
           (-90.0 90.0)
  end
  begin
     id 19
     name lradius
     direction 1 -4.48961e-011 1.43854e-026   
     length 3.32189   
     axis 180 -30 -90   XYZ
    dof rx
    limits (-10.0 170.0)
  end
  begin
     id 20
     name lwrist
     direction 1 -4.48958e-011 3.1502e-026   
     length 1.66095   
     axis -1.97692e-014 90 90   XYZ
    dof ry
    limits (-180.0 0.0)
 end
  begin
     id 21 
     name lhand
     direction 1 -4.48927e-011 6.3004e-026   
     length 0.645616   
     axis -4.02019e-014 90 90   XYZ
    dof rx rz
    limits (-90.0 90.0)
           (-45.0 45.0)
  end
  begin
     id 22 
     name lfingers
     direction 1 -4.4904e-011 1.26008e-025   
     length 0.520512   
     axis -8.04039e-014 90 90   XYZ
    dof rx
    limits (0.0 90.0)
  end
  begin
     id 23
     name lthumb
     direction 0.707107 -6.34947e-011 0.707107   
     length 0.747354   
     axis -90 45 2.85299e-015   XYZ
    dof rx rz
    limits (-45.0 45.0)
           (-45.0 45.0)
  end
  begin
     id 24 
     name rclavicle
     direction -0.909391 0.383475 -0.161107   
     length 3.25176  
     axis 0 0 0   XYZ 
    dof ry rz
    limits (-10.0 20.0)
           (-20.0 0.0)
  end
  begin
     id 25 
     name rhumerus
     direction -1 -4.48965e-011 -1.81384e-027  
     length 5.6595   
     axis 180 30 90   XYZ
    dof rx ry rz
    limits (-90.0 60.0)
           (-90.0 90.0)
           (-90.0 90.0)
  end
  begin
     id 26 
     name rradius
     direction -1 -4.48996e-011 -8.09397e-027   
     length 3.37604   
     axis 180 30 90   XYZ
    dof rx
    limits (-10.0 170.0)
  end
  begin
     id 27 
     name rwrist
     direction -1 -4.48927e-011 -1.56669e-026   
     length 1.68802   
     axis 1.21142e-014 -90 -90   XYZ
    dof ry
    limits (-180.0 0.0)
  end
  begin
     id 28
     name rhand
     direction -1 -4.48912e-011 -3.13339e-026   
     length 0.824702   
     axis 1.99937e-014 -90 -90   XYZ
    dof rx rz
    limits (-90.0 90.0)
           (-45.0 45.0)
  end
  begin
     id 29
     name rfingers
     direction -1 -4.49011e-011 -6.26677e-026   
     length 0.664896   
     axis 3.99874e-014 -90 -90   XYZ
    dof rx
    limits (0.0 90.0)
  end
  begin
     id 30
     name rthumb
     direction -0.707107 -6.34931e-011 0.707107   
     length 0.954662   
     axis -90 -45 -2.85299e-015   XYZ
    dof rx rz
    limits (-45.0 45.0)
           (-45.0 45.0)
  end
:hierarchy
  begin
    root lhipjoint rhipjoint lowerback
    lhipjoint lfemur
    lfemur ltibia
    ltibia lfoot
    lfoot ltoes
    rhipjoint rfemur
    rfemur rtibia
    rtibia rfoot
    rfoot rtoes
    lowerback upperback
    upperback thorax
    thorax lowerneck lclavicle rclavicle
    lowerneck upperneck
    upperneck head
    lclavicle lhumerus
    lhumerus lradius
    lradius lwrist
    lwrist lhand lthumb
    lhand lfingers
    rclavicle rhumerus
    rhumerus rradius
    rradius rwrist
    rwrist rhand rthumb
    rhand rfingers
  end

#!OML:ASF F:\VICON\USERDATA\INSTALL\rory3\rory3.ASF
:FULLY-SPECIFIED
:DEGREES
108
root 13.777 17.7689 -42.5007 5.73043 -28.9323 1.15085
lowerback 5.83468 0.438283 -5.97711
upperback 0.523588 0.286381 3.34934
thorax -2.78233 0.229247 6.85704
lowerneck -13.0622 -3.29102 -14.4247
upperneck 22.4351 -2.5287 4.94381
head 9.52825 -1.89618 3.81762
rclavicle 9.24349e-015 -6.36111e-015
rhumerus -35.4427 -17.4812 -69.9672
rradius 33.5293
rwrist -13.5687
rhand -10.9668 16.592
rfingers 7.12502
rthumb 15.0525 -12.8408
lclavicle 9.24349e-015 -6.36111e-015
lhumerus -30.8194 20.7266 70.1124
lradius 38.1387
lwrist -2.88353
lhand -3.72195 33.2106
lfingers 7.12502
lthumb 22.0209 61.977
rfemur -19.7799 6.51965 8.51598
rtibia 42.5489
rfoot -21.5983 -0.553705
rtoes 9.75401
lfemur -18.8446 2.45024 -24.7935
ltibia 38.9378
lfoot -23.2926 8.56478
ltoes 4.63631
109
root 13.7935 17.7716 -42.4768 5.78833 -29.2063 1.11611
lowerback 6.04547 0.344846 -6.32576
upperback 0.393757 0.133866 3.60331
thorax -3.01351 0.172176 7.34678
lowerneck -12.8686 -3.21422 -14.5499
upperneck 22.2908 -2.36518 4.68914
head 9.42666 -1.85563 3.76528
rclavicle -6.57977e-014 2.14687e-014
rhumerus -35.69 -17.1004 -69.4864
rradius 33.3117
rwrist -13.6116
rhand -10.8269 16.6358
rfingers 7.12502
rthumb 15.1872 -12.7868
lclavicle -6.57977e-014 2.14687e-014
lhumerus -31.1929 20.8939 70.181
lradius 38.268
lwrist -2.971
lhand -3.54321 33.6956
lfingers 7.12502
lthumb 22.1925 62.4416
rfemur -19.9475 6.47574 8.43683
rtibia 42.6943
rfoot -21.6124 -0.406788
rtoes 9.01473
lfemur -18.8355 2.50048 -24.8823
ltibia 38.9789
lfoot -23.377 8.78614
ltoes 4.6928
110
root 13.8072 17.77 -42.4608 5.8845 -29.4031 1.16356
lowerback 6.22621 0.196732 -6.72402
upperback 0.314206 -0.0982794 3.73429
thorax -3.15772 0.0713691 7.7427
lowerneck -13.1429 -3.147 -14.3956
upperneck 22.3488 -2.23028 4.55109
head 9.48036 -1.79487 3.70727
rclavicle -1.61016e-014 3.02153e-014
rhumerus -35.7753 -16.5958 -69.4452
rradius 33.2164
rwrist -13.9371
rhand -10.9329 16.6377
rfingers 7.12502
rthumb 15.0852 -12.7926
lclavicle -1.61016e-014 3.02153e-014
lhumerus -31.296 21.1089 70.0875
lradius 38.2899
lwrist -2.95144
lhand -3.51157 33.7433
lfingers 7.12502
lthumb 22.2229 62.4858
rfemur -20.1621 6.4864 8.29096
rtibia 42.8053
rfoot -21.6111 -0.221442
rtoes 9.94123
lfemur -18.9422 2.53343 -25.0239
ltibia 39.0265
lfoot -23.459 8.9261
ltoes 4.54871
111
root 13.8215 17.7649 -42.4411 6.01743 -29.5883 1.05491
lowerback 6.57041 0.128039 -6.79075
upperback -0.0642274 -0.213278 3.83112
thorax -3.72755 0.0543443 7.9071
lowerneck -12.4895 -3.05697 -14.5651
upperneck 22.3479 -2.20979 4.67156
head 9.35887 -1.79531 3.78259
rclavicle 1.78906e-015 -2.70347e-014
rhumerus -36.5261 -16.6097 -68.8723
rradius 32.9347
rwrist -13.8536
rhand -10.4931 16.8819
rfingers 7.12502
rthumb 15.5087 -12.5162
lclavicle 1.78906e-015 -2.70347e-014
lhumerus -31.8492 20.912 69.9204
lradius 38.1649
lwrist -3.04729
lhand -3.60755 33.1655
lfingers 7.12502
lthumb 22.1308 61.9189
rfemur -20.3113 6.46112 8.29621
rtibia 42.8972
rfoot -21.3773 -0.0399015
rtoes 9.93468
lfemur -18.9669 2.56794 -25.0271
ltibia 39.0313
lfoot -23.4354 9.15717
ltoes 3.82006
112
root 13.8365 17.7589 -42.4092 5.99441 -29.9746 0.914942
lowerback 6.47927 0.0348857 -6.69607
upperback 0.230292 -0.327122 3.75664
thorax -3.346 -0.0324107 7.77594
lowerneck -13.0533 -3.0422 -14.1733
upperneck 22.3513 -2.17057 4.61675
head 9.45214 -1.74396 3.7019
rclavicle -1.15295e-014 3.73715e-014
rhumerus -36.1442 -16.9718 -68.9777
rradius 32.5312
rwrist -13.7246
rhand -10.1221 17.0817
rfingers 7.12502
rthumb 15.8661 -12.2883
lclavicle -1.15295e-014 3.73715e-014
lhumerus -31.2087 21.059 69.7577
lradius 37.7628
lwrist -3.23894
lhand -3.62946 32.9647
lfingers 7.12502
lthumb 22.1097 61.7206
rfemur -20.3151 6.54944 8.28547
rtibia 42.993
rfoot -20.9944 0.24436
rtoes 8.94227
lfemur -18.7596 2.63449 -25.0462
ltibia 39.0372
lfoot -23.5655 9.49402
ltoes 3.44654
113
root 13.8498 17.7517 -42.3733 5.77157 -30.4881 0.964635
lowerback 6.53123 0.0683355 -6.80208
upperback 0.320988 -0.293101 3.75572
thorax -3.28597 -0.0196751 7.83329
lowerneck -12.8708 -2.94957 -14.2453
upperneck 22.3257 -2.07506 4.69423
head 9.39997 -1.69896 3.75298
rclavicle 3.47873e-014 -2.62396e-014
rhumerus -36.4225 -16.8134 -68.7558
rradius 32.4533
rwrist -13.7562
rhand -10.1352 17.1411
rfingers 7.12502
rthumb 15.8534 -12.2298
lclavicle 3.47873e-014 -2.62396e-014
lhumerus -31.0322 20.908 69.8627
lradius 37.4768
lwrist -3.18053
lhand -4.17408 32.5105
lfingers 7.12502
lthumb 21.5868 61.3273
rfemur -20.2489 6.7608 8.07856
rtibia 43.0958
rfoot -20.8075 0.615672
rtoes 9.15041
lfemur -18.4362 2.61397 -25.2654
ltibia 39.0454
lfoot -23.8252 9.90294
ltoes 4.24441
114
root 13.8617 17.7513 -42.3687 5.92593 -30.4661 0.953335
lowerback 6.62718 -0.0352137 -6.93287
upperback 0.2087 -0.445911 3.80646
thorax -3.42834 -0.0832011 7.98192
lowerneck -12.5612 -2.82536 -14.4303
upperneck 22.2352 -1.96946 4.93739
head 9.3018 -1.63988 3.88155
rclavicle -3.27995e-014 -7.15625e-015
rhumerus -36.7484 -17.023 -68.4086
rradius 32.2901
rwrist -13.5053
rhand -9.82377 17.4566
rfingers 7.12502
rthumb 16.1533 -11.8903
lclavicle -3.27995e-014 -7.15625e-015
lhumerus -30.8543 20.7398 70.0078
lradius 37.2699
lwrist -3.1844
lhand -4.11042 33.4725
lfingers 7.12502
lthumb 21.6479 62.2823
rfemur -20.504 6.67247 8.04458
rtibia 43.2498
rfoot -20.7949 0.657467
rtoes 9.77728
lfemur -18.6244 2.69111 -25.2851
ltibia 39.045
lfoot -23.6621 9.79547
ltoes 4.49524
115
root 13.8737 17.7532 -42.3582 6.11185 -30.5501 0.770381
lowerback 6.52941 -0.124622 -6.71834
upperback 0.350538 -0.54727 3.67129
thorax -3.20798 -0.153201 7.71547
lowerneck -12.7186 -2.7719 -14.1391
upperneck 22.0236 -1.98689 5.17745
head 9.25133 -1.58799 3.91262
rclavicle 4.77083e-014 2.22639e-014
rhumerus -36.6544 -17.8223 -68.4212
rradius 31.942
rwrist -13.1686
rhand -9.54992 17.6953
rfingers 7.12502
rthumb 16.417 -11.63
lclavicle 4.77083e-014 2.22639e-014
lhumerus -30.1603 20.5782 69.9047
lradius 36.9278
lwrist -3.4496
lhand -3.80867 33.8459
lfingers 7.12502
lthumb 21.9377 62.622
rfemur -20.733 6.68121 8.15163
rtibia 43.435
rfoot -20.7184 0.821643
rtoes 10.8999
lfemur -18.7037 2.78245 -25.1719
ltibia 39.0281
lfoot -23.4761 9.87485
ltoes 3.8692
116
root 13.8856 17.754 -42.3357 6.18273 -30.7898 0.747177
lowerback 6.5153 -0.115864 -6.70335
upperback 0.366246 -0.535878 3.59338
thorax -3.18642 -0.149659 7.62112
lowerneck -12.7102 -2.82279 -13.9104
upperneck 21.8945 -2.10303 5.15119
head 9.21224 -1.62138 3.84929
rclavicle 2.27608e-014 -7.15625e-015
rhumerus -36.8479 -18.3539 -68.1503
rradius 31.6696
rwrist -13.1608
rhand -9.42188 17.7856
rfingers 7.12502
rthumb 16.5403 -11.5295
lclavicle 2.27608e-014 -7.15625e-015
lhumerus -30.0196 20.2772 69.9967
lradius 36.8487
lwrist -3.44263
lhand -4.02111 33.0643
lfingers 7.12502
lthumb 21.7337 61.8642
rfemur -20.9357 6.70143 8.06681
rtibia 43.5909
rfoot -20.5324 0.956207
rtoes 10.6199
lfemur -18.7407 2.88863 -25.2574
ltibia 39.0483
lfoot -23.6168 9.97542
ltoes 4.10784
117
root 13.8993 17.7471 -42.3074 6.11234 -31.0646 0.849161
lowerback 6.85526 -0.154357 -7.03055
upperback 0.151142 -0.629453 3.72993
thorax -3.58233 -0.164757 7.9788
lowerneck -12.5707 -2.80381 -13.956
upperneck 22.1683 -2.02532 4.84477
head 9.27552 -1.63461 3.76266
rclavicle 6.36111e-015 -3.02153e-014
rhumerus -37.3312 -17.9184 -67.6862
rradius 31.6204
rwrist -13.7302
rhand -9.26143 17.8221
rfingers 7.12502
rthumb 16.6948 -11.48
lclavicle 6.36111e-015 -3.02153e-014
lhumerus -30.5471 20.2088 70.1895
lradius 36.8498
lwrist -3.33664
lhand -4.33068 32.5372
lfingers 7.12502
lthumb 21.4364 61.3712
rfemur -21.0428 6.64856 7.84245
rtibia 43.7596
rfoot -20.4386 1.10371
rtoes 8.91958
lfemur -18.6623 2.97461 -25.4803
ltibia 39.0326
lfoot -23.9112 10.0352
ltoes 5.05962
118
root 13.9141 17.732 -42.281 6.01814 -31.3579 0.83667
lowerback 6.46715 -0.301267 -6.66873
upperback 0.540052 -0.781903 3.44334
thorax -2.93499 -0.291086 7.45675
lowerneck -12.826 -2.7247 -13.7351
upperneck 22.285 -1.96295 5.00035
head 9.35194 -1.57224 3.79078
rclavicle 4.4329e-014 1.11319e-014
rhumerus -37.0148 -18.4519 -68.0303
rradius 31.3863
rwrist -13.6353
rhand -9.27464 17.9455
rfingers 7.12502
rthumb 16.6821 -11.3576
lclavicle 4.4329e-014 1.11319e-014
lhumerus -29.6844 20.2169 69.9929
lradius 36.381
lwrist -3.54183
lhand -4.29288 33.008
lfingers 7.12502
lthumb 21.4727 61.8379
rfemur -21.0647 6.69488 7.71169
rtibia 43.8818
rfoot -20.2871 1.52464
rtoes 10.1797
lfemur -18.48 2.95602 -25.6013
ltibia 39.0484
lfoot -24.1265 10.2794
ltoes 5.63669
119
root 13.9261 17.7431 -42.2611 6.00478 -31.6995 0.729094
lowerback 6.55679 -0.352917 -6.69818
upperback 0.589497 -0.857062 3.48626
thorax -2.9191 -0.330697 7.52762
lowerneck -12.652 -2.53214 -13.7614
upperneck 21.7819 -1.75478 5.20169
head 9.12096 -1.43951 3.88135
rclavicle 8.91549e-014 -2.70347e-014
rhumerus -37.0542 -18.7317 -67.7693
rradius 31.0687
rwrist -13.3106
rhand -9.34259 18.0924
rfingers 7.12502
rthumb 16.6166 -11.2163
lclavicle 8.91549e-014 -2.70347e-014
lhumerus -29.4997 20.3657 70.0616
lradius 36.1315
lwrist -3.77114
lhand -4.26854 33.6667
lfingers 7.12502
lthumb 21.4961 62.4939
rfemur -21.1793 6.80645 7.73493
rtibia 44.0541
rfoot -20.1736 1.60401
rtoes 10.0969
lfemur -18.3283 3.04106 -25.6
ltibia 39.0379
lfoot -24.0933 10.5523
ltoes 5.69883
